<?xml version="1.0" encoding="UTF-8" standalone="no"?>
<!DOCTYPE svg PUBLIC "-//W3C//DTD SVG 1.1//EN" "http://www.w3.org/Graphics/SVG/1.1/DTD/svg11.dtd">
<svg width="100%" height="100%" viewBox="0 0 1280 800" version="1.1" xmlns="http://www.w3.org/2000/svg" xmlns:xlink="http://www.w3.org/1999/xlink" xml:space="preserve" xmlns:serif="http://www.serif.com/" style="fill-rule:evenodd;clip-rule:evenodd;stroke-linejoin:round;stroke-miterlimit:2;">
    <g transform="matrix(1,0,0,1,-2756.07,-1835.57)">
        <g id="Artboard10" transform="matrix(1,0,0,1,-5702.26,1835.57)">
            <rect x="8458.33" y="0" width="1280" height="800" style="fill:none;"/>
            <g transform="matrix(0.789831,-1.26351,1.26351,0.789831,4955.07,-2271.08)">
                <path d="M183.14,3312C189.919,3310.29 197.089,3231.53 191.471,3229C185.853,3226.47 137.975,3243.14 139.661,3247.46C141.348,3251.78 176.361,3313.71 183.14,3312Z" style="fill:rgb(241,93,84);"/>
            </g>
            <g transform="matrix(2.36096,-1.31397,-1.31397,-2.36096,12442,8553.76)">
                <path d="M183.529,3312.63C184.224,3312 185.625,3310.57 185.964,3305.85C187.273,3287.59 193.707,3234.58 191.833,3229.59C190.864,3227.01 189.208,3226.02 186.154,3226.65C175.226,3228.88 152.932,3239.47 143.114,3245.12C139.304,3247.32 139.371,3249.44 139.763,3250.44C141.183,3254.08 168.23,3295.15 177.002,3309.82C178.798,3312.82 181.903,3314.11 183.529,3312.63Z" style="fill:rgb(241,93,84);"/>
            </g>
            <g transform="matrix(0.99897,0.0453756,-0.0453756,0.99897,8815.82,-3086.29)">
                <path d="M163.742,3195C135.845,3176.64 141.201,3144.66 160.858,3131C177.057,3119.74 211.078,3123.1 217.11,3158C224.151,3198.73 183.466,3207.98 163.742,3195Z" style="fill:rgb(32,149,111);"/>
            </g>
            <g transform="matrix(0.99897,0.0453756,-0.0453756,0.99897,9388.28,-2891.33)">
                <path d="M-80,3444C-101.081,3434.14 -118.151,3351.74 -65,3312.03C-11.849,3272.33 -9.374,3262.05 -14,3247C-18.626,3231.95 -17.52,3229.33 -0,3224C17.52,3218.68 117.055,3184.53 120.66,3192C124.265,3199.47 125.04,3208.38 116,3228.74C106.96,3249.11 99.47,3247.06 112.161,3277C124.853,3306.94 134.645,3358.38 88,3397C41.355,3435.62 15.457,3368.52 -10,3399C-35.457,3429.48 -59.6,3453.55 -80,3444Z" style="fill:rgb(241,93,84);"/>
            </g>
            <g transform="matrix(0.460189,0.887821,-0.887821,0.460189,11780.3,-848.087)">
                <path d="M-171.52,3204C-173.179,3195.65 -174.509,3189 -163,3186C-151.491,3183 -112.855,3166.26 -108,3170C-103.145,3173.74 -100.41,3178.7 -95,3228.74C-89.59,3278.79 -71.358,3420.19 -201,3442C-330.642,3463.81 -346.889,3396.75 -348,3390C-349.111,3383.25 -297.266,3364.15 -294,3369C-290.734,3373.85 -280.706,3412.1 -224,3404C-167.294,3395.9 -157.055,3333.12 -161,3298C-164.945,3262.88 -169.861,3212.35 -171.52,3204Z" style="fill:rgb(241,111,159);"/>
            </g>
            <g transform="matrix(0.99897,0.0453756,-0.0453756,0.99897,9025.54,-2631.49)">
                <path d="M-120,3145C-123.499,3144.41 -131.73,3059.72 -130,3055C-128.27,3050.28 -120.718,3049.12 -119,3051C-117.282,3052.88 -104.54,3127.22 -105,3140C-105.136,3143.79 -116.501,3145.6 -120,3145Z" style="fill:rgb(235,197,27);"/>
            </g>
            <g transform="matrix(0.99897,0.0453756,-0.0453756,0.99897,9025.54,-2631.49)">
                <path d="M-156,3155C-159.067,3155.11 -157.222,3132.44 -164,3121C-170.778,3109.56 -187.968,3069 -184,3066C-180.032,3063 -169.704,3056.8 -168,3059.62C-166.296,3062.43 -148.982,3104.39 -146,3121C-143.018,3137.61 -141.392,3147.59 -143,3152C-144.608,3156.41 -152.933,3154.89 -156,3155Z" style="fill:rgb(235,197,27);"/>
            </g>
            <g transform="matrix(1.32348,0.0601157,-0.0601157,1.32348,9832.28,-3505.48)">
                <path d="M-168,3014C-170.323,3011.85 -173.825,2993.02 -172,2991C-170.175,2988.98 -142.765,2980.58 -142.368,2982C-141.97,2983.42 -136.621,3007.7 -138,3010C-139.379,3012.3 -165.677,3016.15 -168,3014Z" style="fill:rgb(33,38,76);"/>
            </g>
            <g transform="matrix(1.32348,0.0601157,-0.0601157,1.32348,9836.01,-3515.31)">
                <path d="M-206,2926C-206.174,2922.76 -189.552,2914.84 -172.508,2912C-155.464,2909.16 -152.365,2907.81 -151,2912C-149.635,2916.19 -141.013,2966.25 -145,2967.55C-148.987,2968.84 -171.116,2973.41 -183,2977C-194.884,2980.6 -198.176,2982.03 -200,2974C-201.824,2965.97 -205.826,2929.24 -206,2926Z" style="fill:rgb(96,172,223);"/>
            </g>
            <g transform="matrix(0.99897,0.0453756,-0.0453756,0.99897,8749.46,-2959.2)">
                <path d="M-48,3125.24C-49.521,3118.03 -72.048,3050.61 -31,3022C10.048,2993.39 52.791,2990.87 80,3005C107.209,3019.13 118.64,3063.88 120.66,3071C122.68,3078.12 121.501,3076.95 114,3080C106.499,3083.06 93.265,3087.1 89,3089C84.735,3090.9 83.557,3091.16 81,3083C78.443,3074.84 70.342,3042.1 50,3038C29.658,3033.9 6.358,3041.95 -0.832,3059.62C-8.022,3077.28 0.802,3103.63 2.497,3110C4.193,3116.37 4.981,3116.08 -5,3119C-14.981,3121.92 -32.128,3127.05 -38.212,3129C-44.296,3130.95 -46.479,3132.45 -48,3125.24Z" style="fill:rgb(96,172,223);"/>
            </g>
            <g transform="matrix(0.302382,-0.953187,0.953187,0.302382,6224.39,-536.322)">
                <path d="M1.497,2923.4C0.06,2918.8 0.967,2917.47 8,2915C15.033,2912.53 62.752,2900.87 89,2895.5C115.248,2890.13 155.924,2880.66 160.858,2879C165.791,2877.35 165.693,2875.62 168,2880C170.307,2884.38 177.923,2898.32 180,2909.34C182.077,2920.36 178.878,2923.8 174,2924C169.122,2924.2 166.098,2921.83 160.858,2915C155.617,2908.17 153.963,2905.68 151,2907C148.037,2908.32 147.31,2913.33 149,2922.4C150.69,2931.48 147.782,2935.03 143.171,2936C138.561,2936.97 134.961,2933.07 131,2926C127.039,2918.93 121.335,2913.25 116,2917C110.665,2920.75 112.825,2924.51 114,2933C115.175,2941.49 113.956,2948.02 106,2949C98.044,2949.98 95.938,2942.15 92,2934C88.062,2925.85 81.914,2921.61 78,2926C74.086,2930.39 75.555,2937.78 77,2946C78.445,2954.22 70.923,2959.95 64,2956C57.077,2952.05 57.167,2948.68 53,2942C48.833,2935.32 43.654,2930.36 38,2934C32.346,2937.64 34.527,2946.93 35,2956C35.473,2965.08 28.51,2969.49 21,2967C13.49,2964.51 10.423,2954.46 8,2947C5.577,2939.54 2.934,2928.01 1.497,2923.4Z" style="fill:rgb(33,38,76);"/>
            </g>
            <g transform="matrix(0.758456,0.651724,-0.651724,0.758456,10664.6,-1966.91)">
                <path d="M-130.236,2911C-131.191,2906.92 -133.692,2903.92 -128,2902C-122.308,2900.08 -88.736,2897.14 -81,2877.23C-73.264,2857.33 -82.499,2829.21 -51,2815C-19.501,2800.79 7.694,2806.78 30,2785C52.306,2763.22 38.432,2739.71 37,2726C35.568,2712.29 38.881,2696.98 41,2695.9C43.119,2694.82 72.085,2694.9 73,2695.9C73.915,2696.89 68.307,2706.77 71,2727C73.693,2747.23 88.145,2777.26 70,2805C51.855,2832.74 27.369,2832.15 9,2835C-9.369,2837.85 -28.856,2846.38 -36,2882C-43.144,2917.62 -63.93,2932.29 -90.968,2938C-118.005,2943.71 -122.87,2947.47 -124,2943C-125.13,2938.53 -129.281,2915.08 -130.236,2911Z" style="fill:rgb(241,111,159);"/>
            </g>
            <g transform="matrix(0.951406,0.307939,-0.307939,0.951406,9801.84,-2335.36)">
                <path d="M-59,2716C-61.245,2710.75 -58.265,2709.97 -53,2708C-47.735,2706.03 -19.13,2697.16 -14,2695.12C-8.87,2693.08 -8.924,2696.1 -7,2700C-5.076,2703.91 35.799,2841.04 38,2848.3C40.201,2855.55 44.445,2857.93 53,2856C61.555,2854.08 130.882,2836.53 138.804,2834.55C146.725,2832.57 148.302,2831.7 150.178,2839C152.054,2846.3 160.593,2869.99 160.858,2873C161.123,2876.01 159.222,2876.81 150.178,2879C141.135,2881.19 23.688,2903.51 15,2906C6.312,2908.49 0.458,2910.55 -3,2898C-6.458,2885.45 -56.755,2721.25 -59,2716Z" style="fill:rgb(235,197,27);"/>
            </g>
            <g transform="matrix(0.99897,0.0453756,-0.0453756,0.99897,8947.14,-2804.59)">
                <path d="M201,2893C196.137,2868.57 208.705,2843.03 252,2840C295.295,2836.97 326.728,2871.93 316,2907.88C305.272,2943.82 259.142,2935.1 241,2931C222.858,2926.9 205.65,2916.36 201,2893ZM259.065,2902C281.461,2903.77 282.214,2873.26 261,2873C239.786,2872.74 233.558,2899.98 259.065,2902Z" style="fill:rgb(96,172,223);"/>
            </g>
            <g transform="matrix(-0.60341,0.797431,-0.797431,-0.60341,11458.9,2021.34)">
                <path d="M306.114,3430C306.114,3430 260.169,3291.7 248.792,3270.39C237.416,3249.07 223.276,3220.7 223,3216.41C222.724,3212.12 227.059,3208.85 241,3216.41C254.941,3223.97 406.343,3290.57 419.062,3295C431.78,3299.43 434.776,3299.22 435,3305C435.224,3310.78 434.134,3360.41 434,3369C433.866,3377.6 431.727,3379.89 424,3374C416.273,3368.11 342.628,3328.27 330,3320C317.372,3311.73 313.863,3315.04 320,3326C326.137,3336.96 353.465,3404.85 354.547,3411C355.63,3417.15 353.989,3418.21 344.208,3422C334.428,3425.79 319.24,3429.9 314.516,3433C309.792,3436.1 308.358,3435.63 306.114,3430Z" style="fill:rgb(241,93,84);"/>
            </g>
            <g transform="matrix(0.525016,0.851092,-0.851092,0.525016,11949.9,-1546.89)">
                <path d="M130,3120C138.295,3118.6 316.975,3069.39 325,3067C333.025,3064.61 333.505,3059.37 330,3050.14C326.495,3040.92 266.451,2897.15 263.898,2891C261.346,2884.85 258.988,2877.11 254,2887.4C249.012,2897.69 131.325,3099.56 127,3107.03C122.675,3114.51 120.042,3121.68 130,3120Z" style="fill:rgb(96,172,223);"/>
            </g>
            <g transform="matrix(0.99897,0.0453756,-0.0453756,0.99897,9052.78,-2491.44)">
                <path d="M-219.493,2831C-217.149,2829.8 -217.457,2828.61 -212.4,2833C-207.343,2837.39 -177.258,2867.41 -142.368,2849C-107.477,2830.59 -123.524,2786.76 -126,2782C-128.476,2777.24 -130.515,2773.69 -127,2772C-123.485,2770.31 -103.982,2762.17 -100.342,2760.62C-96.703,2759.06 -96.246,2760.1 -94,2766C-91.754,2771.9 -76.7,2805.07 -85,2838C-93.3,2870.93 -137.427,2896.5 -172.508,2891.4C-207.59,2886.3 -231.501,2862.74 -235.768,2858C-240.65,2852.58 -240.931,2851.49 -235.768,2847C-230.604,2842.51 -221.836,2832.2 -219.493,2831Z" style="fill:rgb(32,149,111);"/>
            </g>
            <g transform="matrix(-0.980411,0.196965,0.196965,0.980411,7901.66,-2479.21)">
                <path d="M-55.528,3004C-51.42,3002.89 -11.864,2990.71 -7.315,2989C-2.767,2987.29 -2.461,2984.43 -4,2979C-5.539,2973.57 -18.787,2931.18 -20.696,2925C-22.606,2918.82 -22.035,2913.62 -29,2921C-35.965,2928.38 -48.2,2940.24 -59.756,2948C-71.311,2955.76 -75.293,2958.83 -75,2961C-74.707,2963.18 -74.523,2963.04 -72.778,2969C-71.034,2974.96 -64.938,2996.19 -63.461,3001.32C-61.983,3006.44 -59.636,3005.11 -55.528,3004Z" style="fill:rgb(33,38,76);"/>
            </g>
            <g transform="matrix(0.99897,0.0453756,-0.0453756,0.99897,8749.24,-2652.82)">
                <path d="M487.898,2833C480.937,2831.89 478.935,2820.21 493,2823C507.065,2825.79 520.113,2827.74 520,2833C519.887,2838.26 516.757,2839.16 510,2838C503.243,2836.85 494.859,2834.12 487.898,2833Z" style="fill:rgb(241,93,84);"/>
            </g>
            <g transform="matrix(2.05587,-0.533111,0.533111,2.05587,6535.92,-4891.89)">
                <path d="M527,2855C523.56,2853.02 523.257,2846.95 534,2849C544.743,2851.05 557.001,2857.32 552.092,2859C547.183,2860.68 530.44,2856.98 527,2855Z" style="fill:rgb(32,149,111);"/>
            </g>
            <g transform="matrix(0.99897,0.0453756,-0.0453756,0.99897,8721.24,-2662.57)">
                <path d="M516,2876C510.013,2876.17 508.153,2868.18 517,2868C525.847,2867.82 543.631,2870.69 549,2874C554.369,2877.31 552.439,2882.26 544,2880.5C535.561,2878.73 524.742,2875.75 516,2876Z" style="fill:rgb(241,93,84);"/>
            </g>
            <g transform="matrix(2.05587,-0.533111,0.533111,2.05587,6535.92,-4891.89)">
                <path d="M566,2877.23C571.188,2879.49 586.303,2882.09 594,2882.38C601.697,2882.68 604.11,2877.18 599,2874.43C593.89,2871.68 584.502,2872.98 576,2870C567.498,2867.02 562.526,2864.66 560,2867.99C557.474,2871.32 560.812,2874.97 566,2877.23Z" style="fill:rgb(32,149,111);"/>
            </g>
            <g transform="matrix(2.05587,-0.533111,0.533111,2.05587,6535.92,-4891.89)">
                <path d="M546,2838.45C542.086,2836.79 541.275,2830.34 548,2830C554.725,2829.66 555.287,2833.17 567,2835C578.713,2836.83 584.306,2838.77 583,2843C581.694,2847.23 574.933,2845.85 566,2844C557.067,2842.15 549.914,2840.11 546,2838.45Z" style="fill:rgb(32,149,111);"/>
            </g>
            <g transform="matrix(2.05587,-0.533111,0.533111,2.05587,6535.92,-4891.89)">
                <path d="M578,2817C575.357,2815.93 573.423,2807.23 585,2810C596.577,2812.77 608.845,2816.78 605,2821C601.155,2825.22 580.643,2818.07 578,2817Z" style="fill:rgb(32,149,111);"/>
            </g>
            <g transform="matrix(2.05587,-0.533111,0.533111,2.05587,6535.92,-4891.89)">
                <path d="M518,2809.46C513.238,2808.17 515.081,2799.42 524.87,2801.17C534.66,2802.92 557.34,2806.95 557.422,2813C557.504,2819.05 550.925,2819.99 545.565,2818C540.205,2816.01 522.908,2810.78 518,2809.46Z" style="fill:rgb(32,149,111);"/>
            </g>
            <g transform="matrix(2.12168,0.096372,-0.096372,2.12168,7591.18,-5357.86)">
                <path d="M663.876,2852C653.536,2845.93 642.861,2828.45 652,2809.94C659.752,2794.24 692.564,2792.53 705,2805C717.436,2817.47 718.173,2834.81 709,2845.78C702.789,2853.2 681.901,2862.58 663.876,2852ZM672.043,2837.5C678.578,2844.42 692.183,2843.06 698.043,2834.5C703.704,2826.22 698.537,2811.11 684.043,2811.44C665.55,2811.86 665.509,2830.58 672.043,2837.5Z" style="fill:rgb(96,172,223);"/>
            </g>
            <g transform="matrix(0.382236,-1.20491,1.20491,0.382236,5374.38,180.801)">
                <path d="M664.53,3323.39C663.769,3318.82 641.986,3197.5 641,3192C640.014,3186.5 640.616,3183.6 651,3186C661.384,3188.4 677.756,3196.17 677,3208C676.244,3219.83 661.21,3225.78 671,3237C680.79,3248.22 699.717,3257.19 692,3273C684.283,3288.81 674.35,3293.63 685,3303C695.65,3312.37 700.315,3321.05 689,3325C677.685,3328.95 665.735,3330.65 664.53,3323.39Z" style="fill:rgb(33,38,76);"/>
            </g>
            <g transform="matrix(0.99897,0.0453756,-0.0453756,0.99897,9337.09,-2853.54)">
                <path d="M106,2988C102.414,2970.42 113.115,2953.64 135,2954C156.885,2954.36 169.97,2977.14 155.154,2998.23C140.338,3019.33 110.56,3010.35 106,2988Z" style="fill:rgb(32,149,111);"/>
            </g>
            <g transform="matrix(0.922459,0.386096,-0.386096,0.922459,10200.8,-2672.21)">
                <path d="M351.446,2906C347.489,2898.3 334.894,2864.55 324,2845.78C313.106,2827.01 298.562,2796.98 308,2790.74C317.438,2784.51 323.338,2789.04 332.074,2801.17C340.811,2813.3 353.316,2840.79 360.374,2851C367.433,2861.21 376.867,2864.3 374,2854C371.133,2843.71 357.513,2819.03 371.678,2815.89C385.842,2812.75 387.513,2823.31 394.352,2834C401.191,2844.69 406.272,2849.3 410,2845.78C413.728,2842.26 405.689,2827.12 401,2818.94C396.311,2810.77 400.031,2802.22 409,2801.17C417.969,2800.12 426.317,2818.41 431.213,2829.98C436.108,2841.54 444.991,2867.41 446.682,2872C448.372,2876.59 450.12,2878.23 441.76,2880.87C433.401,2883.5 369.953,2906.48 364,2909.34C358.047,2912.2 355.404,2913.7 351.446,2906Z" style="fill:rgb(235,197,27);"/>
            </g>
            <g transform="matrix(2.03469,0.0924206,-0.0924206,2.03469,6823.41,-5848.63)">
                <path d="M1195,3148.03C1195,3148.03 1192.43,3123.54 1201.52,3123.96C1210.61,3124.39 1210,3147 1210,3147C1210,3147 1228.77,3134.93 1232,3138C1235.23,3141.07 1220,3159 1220,3159C1220,3159 1247.24,3161.08 1243.07,3171C1238.91,3180.92 1215,3172 1215,3172C1215,3172 1226.67,3199.02 1219,3200.47C1211.33,3201.93 1201.52,3182 1201.52,3182C1201.52,3182 1188.59,3202.3 1182.56,3198C1176.54,3193.7 1190,3172 1190,3172C1190,3172 1157.54,3176.62 1157,3167C1156.46,3157.38 1182.56,3159 1182.56,3159C1182.56,3159 1172.63,3143.63 1177,3140C1181.37,3136.37 1195,3148.03 1195,3148.03Z" style="fill:rgb(235,197,27);"/>
            </g>
            <g transform="matrix(1.51512,0.0688205,-0.0688205,1.51512,7545.66,-4473.58)">
                <path d="M1243.51,3030C1243.51,3030 1226.57,3008.43 1238,3001.32C1249.43,2994.2 1258.52,3018 1258.52,3018C1258.52,3018 1258.39,2996.85 1266,2998.23C1273.61,2999.62 1270,3014.63 1270,3014.63C1270,3014.63 1283.44,3004.7 1288,3010.19C1292.56,3015.68 1274,3028 1274,3028C1274,3028 1313.43,3015.19 1315,3025C1316.57,3034.81 1284,3047 1284,3047C1284,3047 1310.02,3068.49 1304,3078C1297.98,3087.51 1274,3063.62 1274,3063.62C1274,3063.62 1273.19,3082.73 1266,3083C1258.81,3083.27 1261,3063.62 1261,3063.62C1261,3063.62 1244.89,3097.57 1232,3092C1219.11,3086.43 1247,3049 1247,3049C1247,3049 1219.5,3063.64 1217,3061C1214.5,3058.36 1237,3043 1237,3043C1237,3043 1217.58,3039 1222,3030C1226.42,3021 1243.51,3030 1243.51,3030Z" style="fill:rgb(235,197,27);"/>
            </g>
            <g transform="matrix(1.71904,0.078083,-0.078083,1.71904,7477.43,-5329.42)">
                <path d="M1258.52,3474C1258.92,3472.19 1259.59,3441.5 1290,3432C1320.41,3422.5 1342.31,3441.54 1348,3457C1353.69,3472.46 1351.16,3478.05 1349,3478C1346.84,3477.95 1334.73,3478.97 1331,3479C1327.27,3479.03 1331.65,3477.57 1329.93,3470C1328.21,3462.43 1322.35,3453.26 1309,3451.93C1295.65,3450.59 1285.07,3456.41 1282.63,3467C1280.2,3477.59 1282.26,3478.75 1280,3479C1277.74,3479.25 1262.11,3480.1 1260,3480C1257.89,3479.9 1258.12,3475.81 1258.52,3474Z" style="fill:rgb(96,172,223);"/>
            </g>
            <g transform="matrix(0.100904,-2.22146,2.22146,0.100904,94.7205,2272.23)">
                <path d="M948,3952C948,3945.41 949.439,3939.97 957,3945C964.561,3950.03 977.904,3960.87 983,3977C988.096,3993.13 991.123,4010 986,4010L952,4010C947.956,4010 948,4008.18 948,4003L948,3952Z" style="fill:rgb(241,93,84);"/>
            </g>
            <g transform="matrix(0.99897,0.0453756,-0.0453756,0.99897,8335.17,-3603.19)">
                <path d="M948,3922.3L948,3855C948,3851.82 946.829,3846.03 954,3847.19C961.171,3848.35 983.107,3859.82 986,3875.27C988.893,3890.73 986.703,3892.26 990,3892C993.297,3891.74 1008.11,3892 1012,3892C1015.89,3892 1020,3891.98 1020,3898L1020,3922C1020,3924.81 1020.84,3930 1014,3930L955,3930C946.847,3930 948,3922.3 948,3922.3Z" style="fill:rgb(241,111,159);"/>
            </g>
            <g transform="matrix(1.1484,0.0521633,-0.0521633,1.1484,8368.24,-4014.77)">
                <path d="M1007,4012C1002.62,4012 999,4012.99 999,4005L999,3976.52C999,3971.96 1000.4,3971 1007,3971C1013.6,3971 1030.63,3972.82 1035.22,3959C1039.81,3945.18 1032.64,3909.04 1052,3893C1071.36,3876.96 1092.03,3877.19 1114,3877C1135.97,3876.81 1152.17,3880.74 1154,3875.27C1155.83,3869.81 1155.11,3857.33 1155,3847.04C1154.89,3836.74 1155,3814.54 1155,3810.26C1155,3805.99 1154.36,3804 1160,3804L1206,3804C1209.75,3804 1211.1,3804.95 1211.1,3815L1211.1,3925C1211.1,3932.18 1208.66,3931 1203,3931C1197.34,3931 1141.69,3929.5 1121,3929C1100.31,3928.5 1083.8,3931.18 1077,3948C1070.2,3964.82 1078.63,3982.29 1062,3999C1045.37,4015.71 1011.38,4012 1007,4012Z" style="fill:rgb(241,111,159);"/>
            </g>
            <g transform="matrix(1.20788,0.0548647,-0.0548647,1.20788,8374.86,-4467.68)">
                <path d="M1170,3969C1173.95,3969 1194.82,3974.55 1201.52,3993C1208.22,4011.45 1208,4018.58 1208,4023C1208,4027.42 1208.68,4028 1214,4028C1219.32,4028 1254.93,4029.05 1260,4029C1265.07,4028.95 1266,4026.7 1266,4023L1266,3996C1266,3994.3 1264.96,3992 1258.52,3992C1252.08,3992 1248,3991 1248,3991C1248,3991 1249.35,3981.45 1229,3954C1208.65,3926.55 1175.03,3919 1169,3919C1162.97,3919 1163,3918.35 1163,3927L1163,3964.98C1163,3969.8 1166.05,3969 1170,3969Z" style="fill:rgb(241,93,84);"/>
            </g>
            <g transform="matrix(0.99897,0.0453756,-0.0453756,0.99897,8550.76,-3777.44)">
                <path d="M1170,3872L1236,3872C1240.19,3872 1241,3871.07 1241,3865C1241,3858.93 1242,3805.14 1242,3802C1242,3798.86 1242.03,3794.54 1234,3798C1225.97,3801.46 1218.9,3803.9 1211.1,3812.57C1203.3,3821.24 1202.7,3826.02 1201.52,3828C1200.34,3829.98 1176.22,3830 1172,3830C1167.78,3830 1166,3829.49 1166,3835.33L1166,3866C1166,3868.94 1165.09,3872 1170,3872Z" style="fill:rgb(33,38,76);"/>
            </g>
            <g transform="matrix(2.05242,0.0932257,-0.0932257,2.05242,6934.72,-7574.37)">
                <path d="M1117,3831C1117,3828.82 1117.45,3826.33 1114,3827C1109.55,3827.86 1101.25,3830.25 1102,3839C1102.75,3847.75 1108.29,3849.18 1112.18,3849.18C1116.06,3849.18 1117,3849.76 1117,3847.04L1117,3831Z" style="fill:rgb(33,38,76);"/>
            </g>
        </g>
    </g>
</svg>
