<?xml version="1.0" encoding="UTF-8" standalone="no"?>
<!DOCTYPE svg PUBLIC "-//W3C//DTD SVG 1.1//EN" "http://www.w3.org/Graphics/SVG/1.1/DTD/svg11.dtd">
<svg width="100%" height="100%" viewBox="0 0 590 50" version="1.1" xmlns="http://www.w3.org/2000/svg" xmlns:xlink="http://www.w3.org/1999/xlink" xml:space="preserve" xmlns:serif="http://www.serif.com/" style="fill-rule:evenodd;clip-rule:evenodd;stroke-linejoin:round;stroke-miterlimit:2;">
    <g transform="matrix(1,0,0,1,-6120.57,-153.285)">
        <g transform="matrix(1,0,0,1,-108.333,0)">
            <g transform="matrix(0.432073,0,0,0.432073,6199.65,-49.2115)">
                <path d="M103.86,533.367C98.69,542.672 86.938,546.029 77.633,540.86C68.328,535.69 64.971,523.938 70.14,514.633C70.14,514.633 87.567,480.904 134.932,480.904C163.098,480.904 178.352,493.16 190.843,508.233C195.05,513.31 198.868,518.762 202.996,523.915C209.165,531.615 216.194,538.713 230.371,538.713C239.831,538.713 246.431,533.593 252.623,527.875C258.942,522.039 264.762,515.338 270.942,509.258C285.061,495.37 300.945,484.713 323,484.713C344.784,484.713 361.126,495.686 376.148,510.151C382.734,516.491 389.091,523.487 396.079,529.574C403.523,536.058 411.708,541.656 423.062,541.656C432.018,541.656 438.87,537.495 445.223,532.287C451.183,527.401 456.682,521.547 462.307,515.73C481.223,496.166 501.689,478.043 533,478.043C560.355,478.043 576.516,491.031 590.092,507.453C595.972,514.567 601.248,522.413 607.431,529.243C613.601,536.058 620.928,541.713 633,541.713C645.737,541.713 653.969,535.7 661.237,528.554C668.214,521.695 674.432,513.821 681.268,506.675C696.312,490.951 713.849,478.454 741.517,478.454C775.288,478.454 793.429,497.665 810.085,518.331C819.661,530.212 827.692,543.84 845.686,543.84C857.421,543.84 864.962,537.975 871.635,531.11C878.232,524.324 884.08,516.532 890.468,509.463C904.895,493.499 921.681,480.981 947.879,480.981C979.465,480.981 997.418,499.483 1013.72,519.533C1018.27,525.136 1022.69,530.785 1027.7,535.491C1032.66,540.153 1038.27,543.84 1046.21,543.84C1057.38,543.84 1064.04,538.095 1069.85,531.383C1075.93,524.362 1081.21,516.304 1087.19,508.99C1100.79,492.352 1117.28,479.128 1145.18,479.128C1172.41,479.128 1189.54,491.642 1204.26,507.451C1210.86,514.536 1216.88,522.347 1223.7,529.148C1230.79,536.219 1238.92,542.138 1251.61,542.138C1265.23,542.138 1275.03,535.693 1284.19,527.803C1292.36,520.766 1300,512.535 1308.2,504.715C1333.32,480.779 1362.81,460.213 1417.02,472.165C1427.41,474.457 1433.99,484.757 1431.7,495.152C1429.41,505.547 1419.11,512.126 1408.71,509.834C1363.07,499.77 1343.09,524.418 1322.68,544.573C1302.73,564.271 1282.21,580.712 1251.61,580.712C1224.38,580.712 1207.25,568.198 1192.53,552.389C1185.93,545.304 1179.92,537.493 1173.09,530.692C1166,523.621 1157.87,517.702 1145.18,517.702C1133.12,517.702 1125.79,523.445 1119.65,530.351C1113.5,537.263 1108.29,545.207 1102.53,552.407C1089.05,569.229 1073.07,582.414 1046.21,582.414C1021.88,582.414 1005.86,569.904 991.811,553.58C985.811,546.607 980.196,538.912 973.752,532.218C967.165,525.375 959.577,519.555 947.879,519.555C936.143,519.555 928.603,525.421 921.929,532.286C915.332,539.072 909.485,546.864 903.097,553.933C888.669,569.897 871.883,582.414 845.686,582.414C819.315,582.414 802.747,569.396 788.386,552.68C782.139,545.409 776.372,537.385 769.684,530.405C762.688,523.102 754.466,517.028 741.517,517.028C728.25,517.028 719.639,523.041 712.175,530.279C705.156,537.086 698.977,544.905 692.263,551.995C677.287,567.808 660.06,580.287 633,580.287C605.206,580.287 588.824,567.284 575.198,550.937C569.229,543.776 563.922,535.882 557.768,529.007C551.738,522.271 544.688,516.616 533,516.616C519.976,516.616 510.674,523.015 502.273,530.514C494.63,537.338 487.699,545.177 480.49,552.285C464.434,568.117 446.887,580.23 423.062,580.23C394.352,580.23 375.199,563.846 357.546,546.057C352.413,540.884 347.4,535.676 341.996,531.33C336.489,526.903 330.621,523.287 323,523.287C313.54,523.287 306.94,528.407 300.748,534.125C294.429,539.961 288.61,546.662 282.429,552.742C268.31,566.63 252.427,577.287 230.371,577.287C202.205,577.287 186.951,565.031 174.459,549.958C170.252,544.881 166.435,539.429 162.307,534.276C156.138,526.576 149.108,519.478 134.932,519.478C112.862,519.478 103.86,533.367 103.86,533.367Z" style="fill:rgb(96,172,223);"/>
            </g>
        </g>
    </g>
</svg>
