<?xml version="1.0" standalone="no"?>
<!DOCTYPE svg PUBLIC "-//W3C//DTD SVG 20010904//EN"
 "http://www.w3.org/TR/2001/REC-SVG-20010904/DTD/svg10.dtd">
<svg version="1.0" xmlns="http://www.w3.org/2000/svg"
 width="1500.000000pt" height="1500.000000pt" viewBox="0 0 1500.000000 1500.000000"
 preserveAspectRatio="xMidYMid meet">
<metadata>
Created by potrace 1.14, written by Peter Selinger 2001-2017
</metadata>
<g transform="translate(0.000000,1500.000000) scale(0.100000,-0.100000)"
fill="#000000" stroke="none">
<path d="M5478 11644 c-2 -1 -39 -5 -83 -8 -44 -4 -98 -9 -120 -12 -22 -2 -58
-7 -80 -10 -35 -4 -141 -22 -170 -28 -5 -2 -37 -8 -70 -15 -117 -25 -349 -94
-420 -125 -16 -8 -41 -17 -55 -21 -111 -33 -383 -181 -535 -289 -204 -146
-537 -458 -705 -661 -45 -55 -92 -111 -103 -125 -51 -60 -182 -248 -253 -361
-215 -342 -408 -806 -479 -1148 -8 -40 -17 -76 -19 -80 -3 -4 -7 -27 -10 -52
-3 -24 -8 -55 -11 -69 -9 -43 -13 -73 -20 -135 -4 -33 -8 -71 -10 -85 -26
-186 -26 -560 1 -785 5 -44 23 -179 29 -210 88 -543 365 -1173 718 -1629 12
-16 31 -42 42 -57 11 -15 46 -60 79 -99 32 -39 57 -72 55 -74 -2 -2 -33 -7
-69 -10 -36 -4 -96 -14 -134 -23 -37 -8 -73 -16 -80 -17 -27 -6 -222 -69 -231
-75 -5 -4 -37 -18 -70 -32 -33 -13 -78 -33 -100 -45 -22 -12 -60 -32 -85 -45
-25 -13 -46 -27 -48 -31 -2 -5 -8 -8 -13 -8 -14 0 -177 -111 -246 -167 -54
-44 -74 -62 -159 -140 -73 -67 -130 -176 -140 -271 -4 -31 -8 -64 -9 -72 -1
-8 4 -45 11 -82 51 -265 318 -429 576 -353 73 21 133 59 214 134 292 272 610
370 934 289 117 -29 261 -102 385 -196 33 -25 177 -163 320 -306 378 -379 548
-511 815 -628 154 -68 291 -106 450 -125 69 -8 274 -9 360 -1 235 22 489 121
710 276 52 36 159 122 190 152 3 3 29 27 57 54 l51 48 253 3 c140 2 283 6 319
9 36 3 98 8 138 12 40 3 83 7 95 9 12 2 47 6 78 10 31 3 65 7 75 9 11 2 44 7
74 11 30 4 64 9 75 11 10 2 37 6 60 10 71 10 226 43 378 80 l149 37 46 -44
c126 -120 179 -168 262 -235 293 -239 591 -372 915 -410 109 -13 347 -7 435
11 14 3 39 8 55 11 205 37 443 139 662 284 65 43 127 85 138 94 11 9 49 39 85
67 66 51 144 115 164 134 16 14 338 297 356 312 224 184 421 302 626 373 46
16 84 27 84 25 0 -2 18 2 40 10 22 8 57 17 78 19 20 3 51 8 67 10 85 14 132
16 265 16 80 -1 169 -2 198 -3 193 -8 372 111 444 294 33 83 34 224 4 310 -28
81 -70 143 -133 199 -107 94 -208 119 -493 124 -658 10 -1156 -177 -1740 -653
-111 -90 -113 -93 -255 -218 -306 -271 -489 -401 -635 -455 -172 -63 -344 -67
-499 -11 -80 29 -206 102 -194 113 4 4 49 29 98 55 471 250 930 608 1279 1000
363 407 634 870 804 1370 51 150 122 434 138 553 3 26 8 56 10 67 2 11 7 43
10 70 3 28 7 61 10 75 8 53 18 271 17 400 -2 807 -285 1600 -811 2275 -48 61
-89 112 -92 115 -3 3 -34 39 -70 80 -160 185 -427 434 -625 581 -277 208 -618
379 -910 460 -85 23 -98 26 -207 44 -17 3 -34 8 -37 10 -28 17 -327 25 -458
12 -247 -24 -523 -125 -736 -271 -112 -76 -133 -93 -231 -191 -129 -128 -224
-259 -299 -413 -45 -92 -114 -291 -121 -352 -3 -19 -8 -53 -12 -75 -10 -52
-11 -335 -2 -401 13 -87 55 -235 93 -326 68 -162 150 -281 295 -427 194 -196
390 -323 780 -504 322 -150 475 -316 530 -577 16 -73 20 -239 9 -318 -36 -252
-218 -524 -457 -685 -123 -83 -338 -174 -487 -208 -27 -6 -54 -12 -60 -13 -5
-2 -32 -6 -60 -10 -27 -4 -61 -10 -75 -12 -100 -17 -373 -23 -475 -10 -33 4
-76 9 -95 12 -133 16 -346 89 -496 168 -172 92 -282 184 -531 448 -118 125
-218 169 -363 162 -111 -5 -210 -48 -285 -122 -89 -87 -134 -186 -139 -306 -7
-162 46 -261 255 -476 387 -396 816 -637 1324 -746 138 -29 343 -48 525 -48
111 0 294 11 335 19 11 2 42 7 68 10 44 5 193 35 257 51 73 18 256 77 264 85
6 5 17 9 26 9 14 0 309 144 355 173 191 122 293 203 446 356 118 118 216 236
283 341 148 230 252 504 283 746 15 120 8 404 -13 519 -9 51 -11 59 -17 85 -4
14 -9 36 -11 50 -20 119 -140 385 -217 482 -16 20 -29 39 -29 43 0 17 -165
189 -251 261 -156 130 -266 194 -659 382 -138 66 -200 107 -298 197 -185 170
-252 353 -207 565 42 201 158 336 345 401 30 11 66 22 80 24 14 3 48 9 75 14
63 12 279 13 331 1 21 -5 52 -11 67 -14 141 -25 376 -137 577 -274 52 -36 97
-68 100 -71 3 -3 23 -19 45 -36 22 -16 42 -32 45 -35 3 -3 52 -47 110 -97 398
-343 733 -841 894 -1327 32 -96 78 -270 91 -341 32 -183 49 -359 48 -520 0
-98 -12 -315 -18 -325 -2 -3 -6 -30 -10 -60 -6 -47 -15 -99 -41 -230 -29 -146
-132 -427 -224 -610 -300 -601 -771 -1079 -1444 -1465 -55 -31 -323 -165 -331
-165 -2 0 -28 -11 -57 -24 -29 -12 -61 -26 -72 -30 -13 -4 -44 11 -105 53
-159 109 -323 187 -500 237 -105 29 -105 29 -181 39 -30 4 -66 9 -80 11 -42 7
-261 6 -325 -1 -101 -11 -251 -44 -327 -71 -82 -30 -265 -118 -289 -140 -8 -8
-19 -14 -23 -14 -11 0 -138 -93 -211 -153 -33 -28 -108 -98 -167 -155 l-107
-105 -88 13 c-48 8 -92 14 -98 15 -31 3 -118 19 -170 31 -33 7 -73 15 -90 18
-132 24 -599 166 -673 205 -9 5 -53 24 -97 42 -233 92 -584 289 -800 447 -473
347 -661 596 -730 967 -23 121 -23 347 0 485 2 14 7 45 10 70 17 119 76 307
146 456 94 204 252 418 415 565 27 24 53 49 59 55 19 21 170 129 232 167 247
149 557 248 828 262 33 2 112 6 175 10 113 5 276 28 335 45 368 111 629 271
838 515 94 109 133 165 205 295 59 106 126 297 138 394 3 23 10 59 14 81 11
49 10 303 0 353 -5 21 -10 53 -13 72 -8 57 -43 180 -73 255 -86 216 -239 433
-406 576 -40 34 -75 65 -78 69 -3 4 -47 35 -99 70 -219 147 -467 241 -731 276
-46 6 -338 13 -342 8z m302 -908 c215 -30 404 -161 488 -338 51 -107 67 -185
59 -294 -18 -251 -251 -475 -572 -549 -59 -14 -131 -20 -365 -30 -63 -3 -128
-7 -145 -9 -16 -3 -55 -8 -85 -11 -30 -4 -64 -8 -75 -10 -11 -2 -40 -7 -65
-10 -126 -18 -368 -88 -535 -155 -349 -140 -728 -423 -942 -703 -26 -34 -50
-64 -53 -67 -34 -29 -206 -309 -257 -417 -32 -69 -51 -95 -39 -55 2 9 8 51 11
92 24 271 107 609 218 885 132 331 379 718 577 903 82 78 113 104 190 163 163
125 346 244 506 329 44 23 86 46 94 51 8 5 62 29 120 55 219 97 412 152 595
170 33 4 61 7 62 8 6 5 161 -1 213 -8z"/>
</g>
</svg>
